<?xml version="1.0" encoding="utf-8"?>
<!-- Generator: Adobe Illustrator 27.0.0, SVG Export Plug-In . SVG Version: 6.00 Build 0)  -->
<svg version="1.1" id="Layer_1" xmlns="http://www.w3.org/2000/svg" xmlns:xlink="http://www.w3.org/1999/xlink" x="0px" y="0px"
	 viewBox="0 0 512 512" style="enable-background:new 0 0 512 512;" xml:space="preserve">
<style type="text/css">
	.st0{fill:#010101;}
	.st1{fill:#FFFFFF;}
</style>
<g id="XMLID_1_">
	<path id="XMLID_2_" class="st0" d="M191.16,8.27C257.37-8.7,330.59,1.11,389.09,37.31c73.65,44.05,121.62,127.23,122.89,212.94
		c2.67,86.55-42.36,172.4-114.89,219.4c-80.66,54.29-192.32,56.39-274.67,4.77C38.39,424.34-10.57,323.2,2.06,226.12
		C12.02,123.58,91.28,33.1,191.16,8.27z"/>
	<path id="XMLID_3_" class="st1" d="M180.92,50.21C306.04,0.13,459.65,92.58,472.56,226.83c20.2,120.78-80.1,243.53-202.42,247.03
		C153.7,485.5,41.34,386.88,37.97,270.03C29.41,175.48,91.7,81.5,180.92,50.21z"/>
	<path id="XMLID_4_" class="st0" d="M193.54,242.96c56.11-45.87,110.96-93.29,168.34-137.75c-30.02,46.15-61.02,91.74-91.04,138.04
		C245.02,243.38,219.21,243.38,193.54,242.96z"/>
	<path id="XMLID_5_" class="st0" d="M240.95,268.63c25.95,0,51.76,0,77.43,0.42c-56.53,45.59-111.1,93.43-168.62,137.75
		C180.07,360.51,210.93,314.78,240.95,268.63z"/>
</g>
</svg>
